# Blender 4.1.1
# www.blender.org
mtllib sphere.mtl
o Cube
v -1.000000 -1.000000 1.000000
v -1.000000 1.000000 1.000000
v -1.000000 -1.000000 -1.000000
v -1.000000 1.000000 -1.000000
v 1.000000 -1.000000 1.000000
v 1.000000 1.000000 1.000000
v 1.000000 -1.000000 -1.000000
v 1.000000 1.000000 -1.000000
vn -1.0000 -0.0000 -0.0000
vn -0.0000 -0.0000 -1.0000
vn 1.0000 -0.0000 -0.0000
vn -0.0000 -0.0000 1.0000
vn -0.0000 -1.0000 -0.0000
vn -0.0000 1.0000 -0.0000
vt 0.574545 0.695165
vt 0.574545 0.336475
vt 0.933234 0.336475
vt 0.933234 0.695165
vt 0.202916 0.842840
vt 0.202916 0.063686
vt 0.982069 0.063686
vt 0.982069 0.842840
vt 0.462128 0.696762
vt 0.462128 0.355137
vt 0.803753 0.355137
vt 0.803753 0.696762
vt 0.028154 0.571986
vt 0.028154 0.297151
vt 0.302989 0.297151
vt 0.302988 0.571986
vt 0.776693 0.615037
vt 0.373111 0.615037
vt 0.373111 0.211455
vt 0.776693 0.211455
vt 1.002077 0.999943
vt 0.002077 0.999943
vt 0.002077 -0.000057
vt 1.002077 -0.000057
s 0
usemtl Material.001
f 1/1/1 2/2/1 4/3/1 3/4/1
f 3/5/2 4/6/2 8/7/2 7/8/2
f 7/9/3 8/10/3 6/11/3 5/12/3
f 5/13/4 6/14/4 2/15/4 1/16/4
f 3/17/5 7/18/5 5/19/5 1/20/5
f 8/21/6 4/22/6 2/23/6 6/24/6
